<svg xmlns="http://www.w3.org/2000/svg" viewBox="0 0 640 480" width="640" height="480" role="img" aria-label="林盘农事体验">
  <title>林盘农事体验</title>
    
  <defs>
    <linearGradient id="sky" x1="0" y1="0" x2="0" y2="1">
      <stop offset="0%" stop-color="#E8F1EC"/>
      <stop offset="100%" stop-color="#F8F5EE"/>
    </linearGradient>
    <linearGradient id="field" x1="0" y1="0" x2="0" y2="1">
      <stop offset="0%" stop-color="#E3EADF"/>
      <stop offset="100%" stop-color="#D3DECB"/>
    </linearGradient>
  </defs>
  <rect width="640" height="480" fill="url(#sky)"/>
  <circle cx="516" cy="92" r="42" fill="#D9A441" opacity=".28"/>
  <circle cx="516" cy="92" r="26" fill="#D9A441" opacity=".55"/>
  <path d="M0 250 L96 194 L176 236 L268 182 L360 240 L448 196 L544 246 L640 206 L640 300 L0 300 Z"
        fill="#BBD3C6" opacity=".75"/>
  <path d="M0 286 L84 244 L188 288 L286 246 L392 292 L494 250 L640 296 L640 360 L0 360 Z"
        fill="#8FB9A3" opacity=".9"/>
  <rect y="330" width="640" height="150" fill="url(#field)"/>
    <rect y="352" width="640" height="128" fill="#E6E1D4"/>
    <ellipse cx="252" cy="404" rx="92" ry="34" fill="#5C6B65" opacity=".32"/>
    <path d="M170 396 q4 -34 82 -34 q78 0 82 34 q-4 26 -82 26 q-78 0 -82 -26 Z" fill="#F6F4EF" stroke="#5C6B65" stroke-width="2"/>
    <circle cx="252" cy="384" r="16" fill="#D9A441" opacity=".8"/>
    <circle cx="308" cy="392" r="12" fill="#D9A441" opacity=".6"/>
    <rect x="440" y="300" width="104" height="24" rx="6" fill="#5C6B65"/>
    <circle cx="492" cy="336" r="34" fill="#9C6B4A" opacity=".85"/>
    <circle cx="492" cy="322" r="8" fill="#5C6B65"/>
    <rect x="486" y="336" width="12" height="46" fill="#9C6B4A"/>
    <path d="M492 250 q-16 -22 0 -40" stroke="#146B57" stroke-width="5" fill="none" opacity=".6"/>
</svg>
